solid OpenSCAD_Model
  facet normal -1 0 0
    outer loop
      vertex 0 0 0
      vertex 0 0 2
      vertex 0 15.5 0
    endloop
  endfacet
  facet normal -1 0 0
    outer loop
      vertex 0 15.5 0
      vertex 0 0 2
      vertex 0 15.5 2
    endloop
  endfacet
  facet normal 0 -1 0
    outer loop
      vertex 0 0 2
      vertex 0 0 0
      vertex 18.5 0 0
    endloop
  endfacet
  facet normal 0 -1 0
    outer loop
      vertex 3 0 2
      vertex 0 0 2
      vertex 18.5 0 0
    endloop
  endfacet
  facet normal 0 -1 0
    outer loop
      vertex 15.5 0 2
      vertex 3 0 2
      vertex 18.5 0 0
    endloop
  endfacet
  facet normal 0 -1 0
    outer loop
      vertex 18.5 0 2
      vertex 15.5 0 2
      vertex 18.5 0 0
    endloop
  endfacet
  facet normal 0 -1 0
    outer loop
      vertex 15.5 0 3.2
      vertex 3 0 2
      vertex 15.5 0 2
    endloop
  endfacet
  facet normal 0 -1 0
    outer loop
      vertex 3 0 3.2
      vertex 3 0 2
      vertex 15.5 0 3.2
    endloop
  endfacet
  facet normal 0 0 -1
    outer loop
      vertex 0 0 0
      vertex 0 15.5 0
      vertex 18.5 0 0
    endloop
  endfacet
  facet normal 0 0 -1
    outer loop
      vertex 18.5 0 0
      vertex 0 15.5 0
      vertex 18.5 15.5 0
    endloop
  endfacet
  facet normal 0 1 0
    outer loop
      vertex 0 15.5 0
      vertex 0 15.5 2
      vertex 18.5 15.5 0
    endloop
  endfacet
  facet normal 0 1 0
    outer loop
      vertex 18.5 15.5 0
      vertex 0 15.5 2
      vertex 18.5 15.5 2
    endloop
  endfacet
  facet normal 0 0 1
    outer loop
      vertex 0 15.5 2
      vertex 0 0 2
      vertex 3 0 2
    endloop
  endfacet
  facet normal 0 0 1
    outer loop
      vertex 15.5 15 2
      vertex 0 15.5 2
      vertex 3 15 2
    endloop
  endfacet
  facet normal 0 0 1
    outer loop
      vertex 3 15 2
      vertex 0 15.5 2
      vertex 3 0 2
    endloop
  endfacet
  facet normal 0 0 1
    outer loop
      vertex 18.5 15.5 2
      vertex 0 15.5 2
      vertex 15.5 15 2
    endloop
  endfacet
  facet normal 0 0 1
    outer loop
      vertex 18.5 0 2
      vertex 15.5 15 2
      vertex 15.5 0 2
    endloop
  endfacet
  facet normal 0 0 1
    outer loop
      vertex 18.5 15.5 2
      vertex 15.5 15 2
      vertex 18.5 0 2
    endloop
  endfacet
  facet normal -1 0 0
    outer loop
      vertex 3 4 2.8
      vertex 3 5 2.8
      vertex 3 15 2
    endloop
  endfacet
  facet normal -1 0 0
    outer loop
      vertex 3 8 2.8
      vertex 3 15 2
      vertex 3 7 2.8
    endloop
  endfacet
  facet normal -1 0 0
    outer loop
      vertex 3 0 2
      vertex 3 0 3.2
      vertex 3 2 2.8
    endloop
  endfacet
  facet normal -1 0 0
    outer loop
      vertex 3 0 2
      vertex 3 2 2.8
      vertex 3 15 2
    endloop
  endfacet
  facet normal -1 0 0
    outer loop
      vertex 3 7 2.8
      vertex 3 15 2
      vertex 3 6 2.8
    endloop
  endfacet
  facet normal -1 0 0
    outer loop
      vertex 3 2 2.8
      vertex 3 3 2.8
      vertex 3 15 2
    endloop
  endfacet
  facet normal -1 0 0
    outer loop
      vertex 3 5 3.2
      vertex 3 6 2.8
      vertex 3 5 2.8
    endloop
  endfacet
  facet normal -1 0 0
    outer loop
      vertex 3 11 2.8
      vertex 3 15 2
      vertex 3 10 2.8
    endloop
  endfacet
  facet normal -1 0 0
    outer loop
      vertex 3 3 2.8
      vertex 3 4 2.8
      vertex 3 15 2
    endloop
  endfacet
  facet normal -1 0 0
    outer loop
      vertex 3 7 3.2
      vertex 3 8 2.8
      vertex 3 7 2.8
    endloop
  endfacet
  facet normal -1 0 0
    outer loop
      vertex 3 6 2.8
      vertex 3 5 3.2
      vertex 3 6 3.2
    endloop
  endfacet
  facet normal -1 0 0
    outer loop
      vertex 3 15 2
      vertex 3 5 2.8
      vertex 3 6 2.8
    endloop
  endfacet
  facet normal -1 0 0
    outer loop
      vertex 3 4 2.8
      vertex 3 3 3.2
      vertex 3 4 3.2
    endloop
  endfacet
  facet normal -1 0 0
    outer loop
      vertex 3 10 2.8
      vertex 3 15 2
      vertex 3 9 2.8
    endloop
  endfacet
  facet normal -1 0 0
    outer loop
      vertex 3 8 2.8
      vertex 3 7 3.2
      vertex 3 8 3.2
    endloop
  endfacet
  facet normal -1 0 0
    outer loop
      vertex 3 9 2.8
      vertex 3 15 2
      vertex 3 8 2.8
    endloop
  endfacet
  facet normal -1 0 0
    outer loop
      vertex 3 12 2.8
      vertex 3 15 2
      vertex 3 11 2.8
    endloop
  endfacet
  facet normal -1 0 0
    outer loop
      vertex 3 11 3.2
      vertex 3 12 2.8
      vertex 3 11 2.8
    endloop
  endfacet
  facet normal -1 0 0
    outer loop
      vertex 3 9 3.2
      vertex 3 10 2.8
      vertex 3 9 2.8
    endloop
  endfacet
  facet normal -1 0 0
    outer loop
      vertex 3 10 2.8
      vertex 3 9 3.2
      vertex 3 10 3.2
    endloop
  endfacet
  facet normal -1 0 0
    outer loop
      vertex 3 12 2.8
      vertex 3 11 3.2
      vertex 3 12 3.2
    endloop
  endfacet
  facet normal -1 0 0
    outer loop
      vertex 3 13 2.8
      vertex 3 15 2
      vertex 3 12 2.8
    endloop
  endfacet
  facet normal -1 0 0
    outer loop
      vertex 3 13 2.8
      vertex 3 13 3.2
      vertex 3 15 2
    endloop
  endfacet
  facet normal -1 0 0
    outer loop
      vertex 3 15 2
      vertex 3 13 3.2
      vertex 3 15 3.2
    endloop
  endfacet
  facet normal -1 0 0
    outer loop
      vertex 3 2 2.8
      vertex 3 0 3.2
      vertex 3 2 3.2
    endloop
  endfacet
  facet normal -1 0 0
    outer loop
      vertex 3 3 3.2
      vertex 3 4 2.8
      vertex 3 3 2.8
    endloop
  endfacet
  facet normal 0 0 1
    outer loop
      vertex 3 2 3.2
      vertex 3 0 3.2
      vertex 15.5 0 3.2
    endloop
  endfacet
  facet normal 0 0 1
    outer loop
      vertex 15.5 2 3.2
      vertex 3 2 3.2
      vertex 15.5 0 3.2
    endloop
  endfacet
  facet normal 1 0 0
    outer loop
      vertex 15.5 5 2.8
      vertex 15.5 0 2
      vertex 15.5 15 2
    endloop
  endfacet
  facet normal 1 0 0
    outer loop
      vertex 15.5 2 2.8
      vertex 15.5 0 3.2
      vertex 15.5 0 2
    endloop
  endfacet
  facet normal 1 0 0
    outer loop
      vertex 15.5 15 3.2
      vertex 15.5 13 3.2
      vertex 15.5 15 2
    endloop
  endfacet
  facet normal 1 0 0
    outer loop
      vertex 15.5 13 3.2
      vertex 15.5 13 2.8
      vertex 15.5 15 2
    endloop
  endfacet
  facet normal 1 0 0
    outer loop
      vertex 15.5 11 3.2
      vertex 15.5 11 2.8
      vertex 15.5 12 2.8
    endloop
  endfacet
  facet normal 1 0 0
    outer loop
      vertex 15.5 13 2.8
      vertex 15.5 12 2.8
      vertex 15.5 15 2
    endloop
  endfacet
  facet normal 1 0 0
    outer loop
      vertex 15.5 9 3.2
      vertex 15.5 9 2.8
      vertex 15.5 10 2.8
    endloop
  endfacet
  facet normal 1 0 0
    outer loop
      vertex 15.5 12 2.8
      vertex 15.5 11 2.8
      vertex 15.5 15 2
    endloop
  endfacet
  facet normal 1 0 0
    outer loop
      vertex 15.5 11 2.8
      vertex 15.5 10 2.8
      vertex 15.5 15 2
    endloop
  endfacet
  facet normal 1 0 0
    outer loop
      vertex 15.5 5 3.2
      vertex 15.5 5 2.8
      vertex 15.5 6 2.8
    endloop
  endfacet
  facet normal 1 0 0
    outer loop
      vertex 15.5 10 2.8
      vertex 15.5 9 2.8
      vertex 15.5 15 2
    endloop
  endfacet
  facet normal 1 0 0
    outer loop
      vertex 15.5 9 2.8
      vertex 15.5 8 2.8
      vertex 15.5 15 2
    endloop
  endfacet
  facet normal 1 0 0
    outer loop
      vertex 15.5 8 2.8
      vertex 15.5 7 2.8
      vertex 15.5 15 2
    endloop
  endfacet
  facet normal 1 0 0
    outer loop
      vertex 15.5 7 2.8
      vertex 15.5 6 2.8
      vertex 15.5 15 2
    endloop
  endfacet
  facet normal 1 0 0
    outer loop
      vertex 15.5 3 3.2
      vertex 15.5 3 2.8
      vertex 15.5 4 2.8
    endloop
  endfacet
  facet normal 1 0 0
    outer loop
      vertex 15.5 6 2.8
      vertex 15.5 5 2.8
      vertex 15.5 15 2
    endloop
  endfacet
  facet normal 1 0 0
    outer loop
      vertex 15.5 5 2.8
      vertex 15.5 4 2.8
      vertex 15.5 0 2
    endloop
  endfacet
  facet normal 1 0 0
    outer loop
      vertex 15.5 7 3.2
      vertex 15.5 7 2.8
      vertex 15.5 8 2.8
    endloop
  endfacet
  facet normal 1 0 0
    outer loop
      vertex 15.5 4 2.8
      vertex 15.5 3 2.8
      vertex 15.5 0 2
    endloop
  endfacet
  facet normal 1 0 0
    outer loop
      vertex 15.5 3 2.8
      vertex 15.5 2 2.8
      vertex 15.5 0 2
    endloop
  endfacet
  facet normal 1 0 0
    outer loop
      vertex 15.5 2 2.8
      vertex 15.5 2 3.2
      vertex 15.5 0 3.2
    endloop
  endfacet
  facet normal 1 0 0
    outer loop
      vertex 15.5 4 2.8
      vertex 15.5 4 3.2
      vertex 15.5 3 3.2
    endloop
  endfacet
  facet normal 1 0 0
    outer loop
      vertex 15.5 6 2.8
      vertex 15.5 6 3.2
      vertex 15.5 5 3.2
    endloop
  endfacet
  facet normal 1 0 0
    outer loop
      vertex 15.5 8 2.8
      vertex 15.5 8 3.2
      vertex 15.5 7 3.2
    endloop
  endfacet
  facet normal 1 0 0
    outer loop
      vertex 15.5 10 2.8
      vertex 15.5 10 3.2
      vertex 15.5 9 3.2
    endloop
  endfacet
  facet normal 1 0 0
    outer loop
      vertex 15.5 12 2.8
      vertex 15.5 12 3.2
      vertex 15.5 11 3.2
    endloop
  endfacet
  facet normal 1 0 0
    outer loop
      vertex 18.5 0 2
      vertex 18.5 0 0
      vertex 18.5 15.5 0
    endloop
  endfacet
  facet normal 1 0 0
    outer loop
      vertex 18.5 15.5 2
      vertex 18.5 0 2
      vertex 18.5 15.5 0
    endloop
  endfacet
  facet normal 0 1 0
    outer loop
      vertex 3 15 2
      vertex 3 15 3.2
      vertex 15.5 15 2
    endloop
  endfacet
  facet normal 0 1 0
    outer loop
      vertex 15.5 15 2
      vertex 3 15 3.2
      vertex 15.5 15 3.2
    endloop
  endfacet
  facet normal 0 0 1
    outer loop
      vertex 3 15 3.2
      vertex 3 13 3.2
      vertex 15.5 13 3.2
    endloop
  endfacet
  facet normal 0 0 1
    outer loop
      vertex 15.5 15 3.2
      vertex 3 15 3.2
      vertex 15.5 13 3.2
    endloop
  endfacet
  facet normal 0 -1 0
    outer loop
      vertex 15.5 13 2.8
      vertex 15.5 13 3.2
      vertex 3 13 3.2
    endloop
  endfacet
  facet normal 0 -1 0
    outer loop
      vertex 3 13 2.8
      vertex 15.5 13 2.8
      vertex 3 13 3.2
    endloop
  endfacet
  facet normal 0 0 1
    outer loop
      vertex 15.5 12 2.8
      vertex 15.5 13 2.8
      vertex 3 13 2.8
    endloop
  endfacet
  facet normal 0 0 1
    outer loop
      vertex 3 12 2.8
      vertex 15.5 12 2.8
      vertex 3 13 2.8
    endloop
  endfacet
  facet normal 0 1 0
    outer loop
      vertex 15.5 12 3.2
      vertex 15.5 12 2.8
      vertex 3 12 3.2
    endloop
  endfacet
  facet normal 0 1 0
    outer loop
      vertex 3 12 3.2
      vertex 15.5 12 2.8
      vertex 3 12 2.8
    endloop
  endfacet
  facet normal 0 0 1
    outer loop
      vertex 3 12 3.2
      vertex 3 11 3.2
      vertex 15.5 11 3.2
    endloop
  endfacet
  facet normal 0 0 1
    outer loop
      vertex 15.5 12 3.2
      vertex 3 12 3.2
      vertex 15.5 11 3.2
    endloop
  endfacet
  facet normal 0 -1 0
    outer loop
      vertex 15.5 11 2.8
      vertex 15.5 11 3.2
      vertex 3 11 3.2
    endloop
  endfacet
  facet normal 0 -1 0
    outer loop
      vertex 3 11 2.8
      vertex 15.5 11 2.8
      vertex 3 11 3.2
    endloop
  endfacet
  facet normal 0 0 1
    outer loop
      vertex 15.5 10 2.8
      vertex 15.5 11 2.8
      vertex 3 11 2.8
    endloop
  endfacet
  facet normal 0 0 1
    outer loop
      vertex 3 10 2.8
      vertex 15.5 10 2.8
      vertex 3 11 2.8
    endloop
  endfacet
  facet normal 0 1 0
    outer loop
      vertex 15.5 10 3.2
      vertex 15.5 10 2.8
      vertex 3 10 3.2
    endloop
  endfacet
  facet normal 0 1 0
    outer loop
      vertex 3 10 3.2
      vertex 15.5 10 2.8
      vertex 3 10 2.8
    endloop
  endfacet
  facet normal 0 0 1
    outer loop
      vertex 3 10 3.2
      vertex 3 9 3.2
      vertex 15.5 9 3.2
    endloop
  endfacet
  facet normal 0 0 1
    outer loop
      vertex 15.5 10 3.2
      vertex 3 10 3.2
      vertex 15.5 9 3.2
    endloop
  endfacet
  facet normal 0 -1 0
    outer loop
      vertex 15.5 9 2.8
      vertex 15.5 9 3.2
      vertex 3 9 3.2
    endloop
  endfacet
  facet normal 0 -1 0
    outer loop
      vertex 3 9 2.8
      vertex 15.5 9 2.8
      vertex 3 9 3.2
    endloop
  endfacet
  facet normal 0 0 1
    outer loop
      vertex 15.5 8 2.8
      vertex 15.5 9 2.8
      vertex 3 9 2.8
    endloop
  endfacet
  facet normal 0 0 1
    outer loop
      vertex 3 8 2.8
      vertex 15.5 8 2.8
      vertex 3 9 2.8
    endloop
  endfacet
  facet normal 0 1 0
    outer loop
      vertex 15.5 8 3.2
      vertex 15.5 8 2.8
      vertex 3 8 3.2
    endloop
  endfacet
  facet normal 0 1 0
    outer loop
      vertex 3 8 3.2
      vertex 15.5 8 2.8
      vertex 3 8 2.8
    endloop
  endfacet
  facet normal 0 0 1
    outer loop
      vertex 3 8 3.2
      vertex 3 7 3.2
      vertex 15.5 7 3.2
    endloop
  endfacet
  facet normal 0 0 1
    outer loop
      vertex 15.5 8 3.2
      vertex 3 8 3.2
      vertex 15.5 7 3.2
    endloop
  endfacet
  facet normal 0 -1 0
    outer loop
      vertex 15.5 7 2.8
      vertex 15.5 7 3.2
      vertex 3 7 3.2
    endloop
  endfacet
  facet normal 0 -1 0
    outer loop
      vertex 3 7 2.8
      vertex 15.5 7 2.8
      vertex 3 7 3.2
    endloop
  endfacet
  facet normal 0 0 1
    outer loop
      vertex 15.5 6 2.8
      vertex 15.5 7 2.8
      vertex 3 7 2.8
    endloop
  endfacet
  facet normal 0 0 1
    outer loop
      vertex 3 6 2.8
      vertex 15.5 6 2.8
      vertex 3 7 2.8
    endloop
  endfacet
  facet normal 0 1 0
    outer loop
      vertex 15.5 6 3.2
      vertex 15.5 6 2.8
      vertex 3 6 3.2
    endloop
  endfacet
  facet normal 0 1 0
    outer loop
      vertex 3 6 3.2
      vertex 15.5 6 2.8
      vertex 3 6 2.8
    endloop
  endfacet
  facet normal 0 0 1
    outer loop
      vertex 3 6 3.2
      vertex 3 5 3.2
      vertex 15.5 5 3.2
    endloop
  endfacet
  facet normal 0 0 1
    outer loop
      vertex 15.5 6 3.2
      vertex 3 6 3.2
      vertex 15.5 5 3.2
    endloop
  endfacet
  facet normal 0 -1 0
    outer loop
      vertex 15.5 5 2.8
      vertex 15.5 5 3.2
      vertex 3 5 3.2
    endloop
  endfacet
  facet normal 0 -1 0
    outer loop
      vertex 3 5 2.8
      vertex 15.5 5 2.8
      vertex 3 5 3.2
    endloop
  endfacet
  facet normal 0 0 1
    outer loop
      vertex 15.5 4 2.8
      vertex 15.5 5 2.8
      vertex 3 5 2.8
    endloop
  endfacet
  facet normal 0 0 1
    outer loop
      vertex 3 4 2.8
      vertex 15.5 4 2.8
      vertex 3 5 2.8
    endloop
  endfacet
  facet normal 0 1 0
    outer loop
      vertex 15.5 4 3.2
      vertex 15.5 4 2.8
      vertex 3 4 3.2
    endloop
  endfacet
  facet normal 0 1 0
    outer loop
      vertex 3 4 3.2
      vertex 15.5 4 2.8
      vertex 3 4 2.8
    endloop
  endfacet
  facet normal 0 0 1
    outer loop
      vertex 3 4 3.2
      vertex 3 3 3.2
      vertex 15.5 3 3.2
    endloop
  endfacet
  facet normal 0 0 1
    outer loop
      vertex 15.5 4 3.2
      vertex 3 4 3.2
      vertex 15.5 3 3.2
    endloop
  endfacet
  facet normal 0 -1 0
    outer loop
      vertex 15.5 3 2.8
      vertex 15.5 3 3.2
      vertex 3 3 3.2
    endloop
  endfacet
  facet normal 0 -1 0
    outer loop
      vertex 3 3 2.8
      vertex 15.5 3 2.8
      vertex 3 3 3.2
    endloop
  endfacet
  facet normal 0 0 1
    outer loop
      vertex 15.5 2 2.8
      vertex 15.5 3 2.8
      vertex 3 3 2.8
    endloop
  endfacet
  facet normal 0 0 1
    outer loop
      vertex 3 2 2.8
      vertex 15.5 2 2.8
      vertex 3 3 2.8
    endloop
  endfacet
  facet normal 0 1 0
    outer loop
      vertex 15.5 2 3.2
      vertex 15.5 2 2.8
      vertex 3 2 3.2
    endloop
  endfacet
  facet normal 0 1 0
    outer loop
      vertex 3 2 3.2
      vertex 15.5 2 2.8
      vertex 3 2 2.8
    endloop
  endfacet
endsolid OpenSCAD_Model
